<svg data-v-0dd9719b="" version="1.0" xmlns="http://www.w3.org/2000/svg" xmlns:xlink="http://www.w3.org/1999/xlink" width="100%" height="100%" viewBox="0 0 340.000000 250.000000" preserveAspectRatio="xMidYMid meet" color-interpolation-filters="sRGB" style="margin: auto;"> <rect data-v-0dd9719b="" x="0" y="0" width="100%" height="100%" fill="#fff" fill-opacity="1" class="background"></rect> <rect data-v-0dd9719b="" x="0" y="0" width="100%" height="100%" fill="url(#watermark)" fill-opacity="1" class="watermarklayer"></rect> <g data-v-0dd9719b="" fill="#333" class="icon-text-wrapper icon-svg-group iconsvg" transform="translate(48.01499938964844,94.99189567565918)"><g class="iconsvg-imagesvg" transform="translate(0,0)"><g><rect fill="#333" fill-opacity="0" stroke-width="2" x="0" y="0" width="60" height="60.016204375181296" class="image-rect"></rect> <svg x="0" y="0" width="60" height="60.016204375181296" filtersec="colorsb3730537505" class="image-svg-svg primary" style="overflow: visible;"><svg xmlns="http://www.w3.org/2000/svg" viewBox="0.03965405747294426 -0.043051596730947495 143.49554443359375 143.53480529785156"><path d="M29 98.48c-1 1-1.86 2-2.64 3a1.32 1.32 0 0 0 .08 1.2 54.69 54.69 0 0 0 17.12 16.12c1.81 1.08 3.71 2 5.6 2.94a1.51 1.51 0 0 1 1 1.56v5.41a11 11 0 0 1-1.2-.34 61 61 0 0 1-25.31-19.08c-.58-.73-1.14-1.47-1.67-2.23-.35-.5-.69-.57-1.13-.13-.73.73-1.46 1.47-2.2 2.19-.43.42-.33.77 0 1.21a68.13 68.13 0 0 0 13.22 13.54 65.44 65.44 0 0 0 17.41 9.57 1.19 1.19 0 0 1 .9 1.27v4.51c0 .75-.27.92-1 .68a72.12 72.12 0 0 1-37.94-29.52c-.94-1.47-.95-1.45.28-2.7Q20.8 98.32 30 89c2.78-2.79 5.61-5.52 8.41-8.27.25-.24.53-.45.91-.77.18.42.32.69.41 1a32.44 32.44 0 0 0 9.41 15.22 2.74 2.74 0 0 1 1 2.32c-.07 2 0 3.91 0 6.12a11.14 11.14 0 0 1-1.24-.68 39.81 39.81 0 0 1-11.14-12.17c-.65-1.09-.68-1.09-1.58-.18-.56.56-1.08 1.16-1.68 1.67s-.62 1.06-.18 1.75A44.49 44.49 0 0 0 49 109.48a2 2 0 0 1 1.19 2c-.09 1.42 0 2.86 0 4.29 0 1.22-.08 1.27-1.21.7a47.81 47.81 0 0 1-14.52-11.2c-1.69-1.93-3.17-4-4.74-6.08-.13-.13-.28-.27-.72-.71z" fill="#0c3b70"></path><path d="M43.14 54.46c-.86 1.86-1.61 3.35-2.24 4.89a30.56 30.56 0 0 0-2.33 13.72 2.54 2.54 0 0 1-.78 2.2c-1.45 1.41-2.82 2.92-4.4 4.32a23.51 23.51 0 0 1-1-9.41c.22-3.12.79-6.21 1.24-9.48h-4.16c-.18 0-.42.43-.49.7a37.74 37.74 0 0 0-1.12 13.08c.23 2.8.85 5.57 1.27 8.36A1.51 1.51 0 0 1 29 84c-1.4 1.51-2.86 3-4.44 4.58-.26-.6-.45-1-.58-1.36a50.92 50.92 0 0 1-1.51-25.11c.26-1.42.25-1.42-1.23-1.42h-2.25c-.75 0-1 .25-1.13 1A58.43 58.43 0 0 0 17 74a54.34 54.34 0 0 0 3.43 17 1.61 1.61 0 0 1-.43 2.1c-1.26 1.14-2.43 2.37-3.84 3.76-.65-1.61-1.26-3-1.76-4.35a61.27 61.27 0 0 1-3.11-28.63c.1-.78.23-1.56.36-2.33s-.16-.91-.81-.9h-2.9c-.69 0-.91.31-1 1a67.33 67.33 0 0 0-.53 15.73 63.63 63.63 0 0 0 5.88 22 1.3 1.3 0 0 1-.29 1.71c-1 1-2.05 2-3.05 3-.63.66-1 .47-1.32-.27a70.09 70.09 0 0 1-6-17 72.17 72.17 0 0 1 .09-30.55c.36-1.71.37-1.71 2.06-1.71l33.05-.08z" fill="#1274c6"></path><path d="M114.37 45.1c1-1.16 2-2.11 2.77-3.14a1.21 1.21 0 0 0-.1-1.1c-1.29-1.75-2.54-3.55-4-5.18a54.1 54.1 0 0 0-18.8-13.93 1.4 1.4 0 0 1-1-1.47v-5.6A61.53 61.53 0 0 1 121.91 37l3.35-3.46c-1.89-2.21-3.79-4.62-5.88-6.86A64.5 64.5 0 0 0 96.59 11c-.82-.34-1.69-.58-2.48-1a1.49 1.49 0 0 1-.77-1c-.08-1.6 0-3.22 0-4.83 0-.71.33-.83 1-.62A71.46 71.46 0 0 1 132 32.76c1.24 1.87 1.23 1.91-.38 3.52L105 62.9c-.22.22-.47.41-.82.7-.54-1.48-1-2.85-1.53-4.21a31.65 31.65 0 0 0-8.48-12.22 2.38 2.38 0 0 1-.86-2.05c.06-2 0-4 0-6.32a39.48 39.48 0 0 1 13.07 14c1.11-1.11 2.14-2.08 3.07-3.14.15-.17-.08-.8-.28-1.13A42.32 42.32 0 0 0 99 37.15c-1.58-1.22-3.29-2.27-4.93-3.42-.27-.19-.65-.5-.66-.76v-6.55a51.49 51.49 0 0 1 20.96 18.68z" fill="#0c3b70"></path><path d="M100.37 89c.25-.55.35-.85.5-1.12a31.56 31.56 0 0 0 4-17 3.5 3.5 0 0 1 1.21-3c1.33-1.24 2.54-2.61 4-4.11a5.57 5.57 0 0 1 .44 1.06 39.88 39.88 0 0 1-.61 16.81c-.3 1.2-.28 1.24.91 1.25a19.79 19.79 0 0 0 2.67 0 1.43 1.43 0 0 0 1-.8 42.13 42.13 0 0 0 .84-16.28c-.22-1.73-.68-3.43-1-5.15a1.49 1.49 0 0 1 .15-1.08c1.4-1.47 2.85-2.89 4.51-4.55a51.54 51.54 0 0 1 1.81 27.77h4.32c.19 0 .45-.53.5-.84a54.84 54.84 0 0 0-1-24.44c-.51-1.78-1.14-3.54-1.62-5.33a1.77 1.77 0 0 1 .29-1.4c1-1.18 2.2-2.25 3.3-3.38.58-.59.89-.45 1.21.3a60.37 60.37 0 0 1 4.52 30.64c-.13 1.18-.27 2.35-.46 3.51-.12.77.15 1.06.91 1s1.79 0 2.68 0c.71 0 1-.26 1.11-1a64.56 64.56 0 0 0 .72-12.73 66 66 0 0 0-6-25.18 1.48 1.48 0 0 1 .15-1.3c1-1.18 2.19-2.26 3.29-3.38.55-.56.84-.41 1.17.26a70.26 70.26 0 0 1 7.26 39.22c-.31 3.08-1 6.13-1.49 9.2-.12.76-.49 1-1.23 1h-35.09z" fill="#1274c6"></path><path d="M52.93 37c-1.14-1.07-2.09-1.93-3-2.82-.55-.53-1-.17-1.43.11A43.15 43.15 0 0 0 37 44.76c-1.15 1.51-2.11 3.15-3.23 4.68a1.8 1.8 0 0 1-1.17.7c-1.68.08-3.37 0-5 0-.82 0-1-.28-.62-1a50.85 50.85 0 0 1 17-19.2l1-.72c-1-1-2-2-3-2.91-.2-.17-.83-.06-1.12.14a55.27 55.27 0 0 0-19.18 22.9c-.14.3-.43.74-.66.75h-6.35c.81-1.84 1.46-3.49 2.24-5.07a60.83 60.83 0 0 1 19.4-22.9c.74-.53.75-.89.1-1.46a15.13 15.13 0 0 1-1.73-1.76c-.57-.68-1-.61-1.71-.11A68 68 0 0 0 21.5 29.57a64.21 64.21 0 0 0-11.26 19.37 1.57 1.57 0 0 1-1.78 1.25c-1.39-.07-2.79 0-4.19 0-.72 0-.85-.29-.64-.94a70.79 70.79 0 0 1 18.7-29.5 79.81 79.81 0 0 1 11.3-8.85 1.27 1.27 0 0 1 1.91.26Q47.26 22.87 59 34.56c1.51 1.51 3 3.07 4.58 4.73a6.53 6.53 0 0 1-.79.4 33.21 33.21 0 0 0-15.68 9.67 2.79 2.79 0 0 1-1.74.77 49.3 49.3 0 0 1-6.28-.13 38.08 38.08 0 0 1 13.84-13z" fill="#0c3b70"></path><path d="M96.59 127.56c-2.21.79-4.39 1.67-6.63 2.37a60.53 60.53 0 0 1-27.88 2c-1.4-.22-1.4-.21-1.4 1.16 0 .71.06 1.43 0 2.14-.09.93.32 1.26 1.18 1.38a68.5 68.5 0 0 0 15.41.49 65.1 65.1 0 0 0 22.16-5.87 1.23 1.23 0 0 1 1.62.27q1.48 1.54 3 3c.69.65.58 1.05-.25 1.39-3.65 1.46-7.21 3.19-10.94 4.35a70.66 70.66 0 0 1-37 1.46c-1-.23-1.38-.63-1.38-1.71v-31.65c0-2.39 0-4.79.05-7.18a3.85 3.85 0 0 1 .14-.72 4.81 4.81 0 0 1 .82.29A31.81 31.81 0 0 0 73 104.91a2.86 2.86 0 0 1 2.37.94c1.35 1.42 2.8 2.75 4.14 4.29-6.29 1.62-12.49 1.12-18.84-.49v4.32c0 .23.53.55.86.61a58.21 58.21 0 0 0 6.65 1.06 41.63 41.63 0 0 0 14.36-1.22 1.66 1.66 0 0 1 1.89.52c1.28 1.32 2.64 2.57 4.19 4.06a51.7 51.7 0 0 1-28 1.81v4.26c0 .21.55.51.88.56a55.28 55.28 0 0 0 25.28-1.21c1.47-.43 2.93-.91 4.37-1.43a1.25 1.25 0 0 1 1.53.31c1.28 1.29 2.6 2.53 3.9 3.78zM55.24 24.43a5.52 5.52 0 0 1 .72-.38 51.12 51.12 0 0 1 23.84-1.87c.7.11 1.42.2 2.11.37s1-.13 1-.82V19.9c0-1.93 0-1.88-1.86-2.2a55 55 0 0 0-23.91 1.2c-1.68.46-3.32 1.12-5 1.59a1.6 1.6 0 0 1-1.3-.26c-1.14-1-2.19-2.16-3.29-3.23-.65-.62-.63-1 .27-1.34A60.55 60.55 0 0 1 77.33 11c1.77.16 3.53.42 5.47.65V7.44c0-.2-.49-.48-.79-.53a66 66 0 0 0-37.9 5.28 1.5 1.5 0 0 1-1.33-.08c-1.36-1.21-2.63-2.51-4.1-4 .84-.48 1.49-.89 2.17-1.22A72.06 72.06 0 0 1 83 .85a52 52 0 0 1 5.2 1.09A1.39 1.39 0 0 1 88.92 3C89 4.63 89 6.28 89 7.93v35.15a12.23 12.23 0 0 1-1.14-.5 31.89 31.89 0 0 0-16.89-4 3.64 3.64 0 0 1-3.08-1.19c-1.26-1.31-2.63-2.52-4-3.77l.1-.42c1.16-.21 2.3-.51 3.46-.63a39.77 39.77 0 0 1 14 1c1.38.36 1.41.32 1.42-1.06v-1.4c0-2 0-2.06-2-2.46a45 45 0 0 0-20.1.47 1.62 1.62 0 0 1-1.27-.18c-1.41-1.31-2.74-2.71-4.1-4.08-.1-.11-.1-.24-.16-.43z" fill="#1274c6"></path><path d="M128.79 93.33a62 62 0 0 1-22.52 28.74c1.09 1.05 2 2 3 2.87.18.15.76 0 1-.17a65.54 65.54 0 0 0 23-30.53 1.24 1.24 0 0 1 1.34-.94h4.4c.85 0 .94.35.7 1.07a70.51 70.51 0 0 1-15.06 25.71 73.32 73.32 0 0 1-14.56 12.26c-1.33.85-1.33.86-2.47-.27l-23.74-23.78c-1.33-1.32-2.62-2.7-4-4.17 1.27-.44 2.38-.81 3.48-1.21a31.66 31.66 0 0 0 13-8.78 2.31 2.31 0 0 1 1.86-.84h6.45a13.39 13.39 0 0 1-.75 1.29 39.81 39.81 0 0 1-12.29 11.22c-.81.47-.87.81-.17 1.39.27.22.51.49.77.74 2.26 2.2 1.39 2.15 4.11.35a43.05 43.05 0 0 0 13.29-14.06 1.66 1.66 0 0 1 1.63-.93h5.82a51.19 51.19 0 0 1-18.6 21c1.11 1.06 2 2 3.07 2.88.18.16.76 0 1-.12A53.37 53.37 0 0 0 118 101.17c1.42-2.26 2.55-4.71 3.84-7 .17-.31.51-.74.79-.75 1.94-.12 3.9-.09 6.16-.09z" fill="#0c3b70"></path></svg></svg> <!----></g></g> <g transform="translate(67,5.1968536376953125)"><g data-gra="path-name" fill-rule="" class="tp-name iconsvg-namesvg" transform="translate(0,0)"><g transform="scale(1)"><g><path d="M11.14-26.12L11.14-26.12 9.67-23.98Q7.38-25.66 3.41-27.77L3.41-27.77 4.82-29.71Q8.58-27.88 11.14-26.12ZM9.49-16.28L9.49-16.28 8.05-14.03Q5.55-15.89 1.62-17.93L1.62-17.93 3.02-19.86Q7.45-17.68 9.49-16.28ZM9.32-11.04L9.32-11.04 11.18-9.28Q8.47-3.66 4.78 2.29L4.78 2.29 2.67 0.46Q6.26-4.85 9.32-11.04ZM26.44-0.25L26.44-0.25 30.55-0.25Q31.39-0.25 31.68-1.23L31.68-1.23Q31.96-2.25 32.06-5.87L32.06-5.87Q33.01-5.13 34.45-4.75L34.45-4.75Q34.24 0.07 33.22 1.3L33.22 1.3Q32.45 2.21 30.8 2.21L30.8 2.21 26.09 2.21Q23.59 2.21 22.92 1.09L22.92 1.09Q22.43 0.25 22.43-1.62L22.43-1.62 22.43-14.45Q20.71-3.97 14.27 1.16L14.27 1.16Q13.15 2.04 11.92 2.78L11.92 2.78Q11.07 1.55 9.95 0.81L9.95 0.81Q17.37-3.41 19.55-13.04L19.55-13.04Q20.29-16.38 20.53-20.78L20.53-20.78 14.77-20.78 14.77-15.71 12.16-15.71 12.16-23.31 20.64-23.31Q20.71-25.63 20.71-30.09L20.71-30.09 23.38-30.09Q23.27-23.34 23.27-23.31L23.27-23.31 33.5-23.31 33.5-15.71 30.9-15.71 30.9-20.78 23.1-20.78Q22.99-18.7 22.71-16.35L22.71-16.35 25.07-16.35 25.07-1.62Q25.07-0.53 25.56-0.35L25.56-0.35Q25.88-0.25 26.44-0.25ZM48.48-28.65L48.94-28.76 50.73-27.6Q48.48-22.71 46.13-18.42L46.13-18.42Q50.34-14.7 50.34-10.65L50.34-10.65Q50.31-7.56 48.66-6.43L48.66-6.43Q47.81-5.91 46.48-5.73L46.48-5.73Q45.07-5.59 43.38-5.7L43.38-5.7Q43.31-7 42.64-8.12L42.64-8.12Q44.09-7.98 45.42-8.05L45.42-8.05Q46.34-8.12 46.9-8.47L46.9-8.47Q47.85-9.07 47.85-10.9L47.85-10.9Q47.74-14.55 43.52-18.14L43.52-18.14Q45.35-21.52 47.29-26.19L47.29-26.19 41.73-26.19 41.73 2.71 39.23 2.71 39.23-28.65 48.48-28.65ZM55.27-13.25L55.27-2.78 65.92-2.78 65.92-13.25 55.27-13.25ZM65.92-15.71L65.92-25.42 55.27-25.42 55.27-15.71 65.92-15.71ZM52.66 2.46L52.66-27.95 68.55-27.95 68.55 2.18 65.92 2.18 65.92-0.28 55.27-0.28 55.27 2.46 52.66 2.46ZM106.14-25.17L106.14-22.54 91.27-22.54 91.27-17.68 102.83-17.68 102.83-5.06Q102.83-3.13 101.78-2.53L101.78-2.53Q101.53-2.43 101.29-2.32L101.29-2.32Q99.88-1.83 94.96-1.83L94.96-1.83Q94.78-2.85 94.04-4.46L94.04-4.46Q96.47-4.39 99.25-4.39L99.25-4.39Q100.02-4.61 100.05-5.06L100.05-5.06 100.05-15.12 91.27-15.12 91.27 2.85 88.52 2.85 88.52-15.12 80.3-15.12 80.3-1.69 77.63-1.69 77.63-17.68 88.52-17.68 88.52-22.54 73.93-22.54 73.93-25.17 88.49-25.17 88.49-30.27 91.3-30.27 91.3-25.17 106.14-25.17ZM118.62-5.59L118.62-5.59 125.58-5.59Q125.58-5.55 125.51-4.61L125.51-4.61Q125.02 0.56 124.24 1.69L124.24 1.69Q124.1 1.86 124 1.97L124 1.97Q123.15 2.64 121.99 2.71L121.99 2.71Q120.55 2.78 118.27 2.67L118.27 2.67Q118.2 1.55 117.67 0.6L117.67 0.6Q119.74 0.81 120.97 0.81L120.97 0.81Q121.68 0.77 121.99 0.53L121.99 0.53Q122.59-0.14 122.98-3.55L122.98-3.55 118.09-3.55Q116.79 0.18 113.06 1.93L113.06 1.93Q112.08 2.39 110.88 2.78L110.88 2.78Q110.46 1.86 109.55 0.98L109.55 0.98Q113.94-0.28 115.52-3.38L115.52-3.38Q115.56-3.48 115.59-3.55L115.59-3.55 110.88-3.55 110.88-5.59 116.23-5.59Q116.51-6.96 116.58-7.95L116.58-7.95 118.93-7.95Q118.83-6.79 118.62-5.59ZM137.5-0.42L137.5-4.36 130.11-4.36 130.11-0.42 137.5-0.42ZM130.11 2.71L127.69 2.71 127.69-6.36 139.99-6.36 139.99 2.6 137.5 2.6 137.5 1.55 130.11 1.55 130.11 2.71ZM130.92-12.9L130.92-12.9 121.01-12.9Q122.13-11.71 122.52-10.48L122.52-10.48 121.15-10.16 130.68-10.16 129.52-10.41Q130.71-12.41 130.92-12.9ZM135.39-17.58L116.72-17.58 116.72-14.77 135.39-14.77 135.39-17.58ZM137.99-12.9L132.5-12.9 133.8-12.59Q133.03-11.43 132.05-10.16L132.05-10.16 141.43-10.16 141.43-8.05 110.5-8.05 110.5-10.16 119.81-10.16Q119.39-11.43 118.34-12.55L118.34-12.55 119.92-12.9 114.26-12.9 114.26-19.44 137.99-19.44 137.99-12.9ZM127.23-30.09L127.23-27.63 141.68-27.63 141.68-25.59 127.23-25.59 127.23-23.41 139.22-23.41 139.22-21.41 112.82-21.41 112.82-23.41 124.56-23.41 124.56-25.59 110.46-25.59 110.46-27.63 124.56-27.63 124.56-30.09 127.23-30.09ZM164.71-30.02L164.71-30.02 167.31-30.02Q170.72-25.63 175.89-22.57L175.89-22.57Q177.26-21.76 178.56-21.2L178.56-21.2Q177.54-20.04 176.98-18.81L176.98-18.81Q171.91-21.52 168.01-25.45L168.01-25.45Q166.92-26.58 166.15-27.6L166.15-27.6Q163.51-23.91 158.77-20.67L158.77-20.67Q157.08-19.51 155.46-18.67L155.46-18.67Q154.86-19.97 154.05-20.88L154.05-20.88Q158.94-23.31 162.63-27.35L162.63-27.35Q163.9-28.72 164.71-30.02ZM167.59-15.43L177.5-15.43 177.5-13.18 167.59-13.18 167.59-4.96Q167.59-3.3 166.78-2.81L166.78-2.81Q166.57-2.71 166.39-2.64L166.39-2.64Q165.16-2.21 161.75-2.21L161.75-2.21Q161.61-3.09 161.02-4.5L161.02-4.5Q163.65-4.43 164.43-4.5L164.43-4.5Q164.95-4.57 164.99-4.99L164.99-4.99 164.99-13.18 155.64-13.18 155.64-15.43 164.99-15.43 164.99-18.67 159.71-18.67 159.71-20.92 172.93-20.92 172.93-18.67 167.59-18.67 167.59-15.43ZM177.43-5.03L177.43-5.03 175.22-3.94Q173.95-6.71 170.75-10.27L170.75-10.27Q170.51-10.51 170.33-10.72L170.33-10.72 172.41-11.74Q175.32-8.75 177.12-5.63L177.12-5.63Q177.29-5.31 177.43-5.03ZM159.33-11.64L159.33-11.64 161.72-11.04Q159.86-7 156.66-3.97L156.66-3.97Q156.55-3.87 156.52-3.83L156.52-3.83Q155.74-4.46 154.44-5.17L154.44-5.17Q157.57-7.84 159.33-11.64ZM155.04-25.38L155.04-25.38 153.18-23.55Q151.56-25.52 147.94-27.67L147.94-27.67Q147.62-27.88 147.34-28.02L147.34-28.02 149.1-29.67Q153.04-27.56 154.9-25.56L154.9-25.56Q154.97-25.45 155.04-25.38ZM154.02-18.35L154.02-18.35 152.16-16.45Q150.26-18.46 146.57-20.43L146.57-20.43Q146.21-20.6 145.93-20.74L145.93-20.74 147.69-22.46Q151.31-20.81 153.63-18.7L153.63-18.7Q153.88-18.49 154.02-18.35ZM145.79-13.5L153.11-13.5 153.11-4.5Q155.6-0.7 162.18-0.42L162.18-0.42Q170.4-0.21 177.96-0.63L177.96-0.63Q178.31-0.63 178.59-0.67L178.59-0.67Q177.93 0.46 177.68 1.97L177.68 1.97Q169.38 2.25 162.21 2.07L162.21 2.07Q155.5 1.76 152.26-1.83L152.26-1.83Q152.09-2 151.95-2.18L151.95-2.18Q150.08-0.39 146.74 2.43L146.74 2.43 145.34-0.21Q147.83-1.93 150.5-4.32L150.5-4.32 150.5-11 145.79-11 145.79-13.5Z" transform="translate(-1.6200000047683716, 30.270000457763672)"></path></g> <!----> <!----> <!----> <!----> <!----> <!----> <!----></g></g> <g data-gra="path-slogan" fill-rule="" class="tp-slogan iconsvg-slogansvg" fill="#333" transform="translate(5,39.119998931884766)"><rect x="0" height="1" y="4.75" width="11.930000305175781"></rect> <rect height="1" y="4.75" width="11.930000305175781" x="155.04000091552734"></rect> <g transform="translate(14.930000305175781,0)"><g transform="scale(1)"><path d="M0.19-1.92L0.19-2.77L1.27-2.77L1.27-2.16Q1.27-0.75 2.58-0.75L2.58-0.75Q3.94-0.75 3.94-2.25L3.94-2.25L3.94-8.58L5.11-8.58L5.11-2.30Q5.06 0.09 2.63 0.14L2.63 0.14Q0.33 0.09 0.19-1.92L0.19-1.92ZM7.08-8.58L8.25-8.58L8.25 0L7.08 0L7.08-8.58ZM15.89 0L15.05-2.48L11.58-2.48L10.69 0L9.52 0L12.75-8.58L14.06-8.58L17.16 0L15.89 0ZM13.31-7.31L11.95-3.52L14.63-3.52L13.36-7.31L13.31-7.31ZM20.39-7.59L17.48-7.59L17.48-8.58L24.42-8.58L24.42-7.59L21.52-7.59L21.52 0L20.39 0L20.39-7.59ZM31.13-3.19L31.13-8.58L32.30-8.58L32.30-3.05Q32.16 0.05 28.78 0.14L28.78 0.14Q25.64 0.05 25.50-2.86L25.50-2.86L25.50-8.58L26.67-8.58L26.67-3.19Q26.72-0.84 28.83-0.80L28.83-0.80Q31.13-0.84 31.13-3.19L31.13-3.19ZM34.88 0L34.22 0L34.22-1.27L35.48-1.27L35.48-0.09Q35.48 1.45 34.22 1.69L34.22 1.69L34.22 1.08Q34.88 0.98 34.88 0L34.88 0ZM47.02-6.09L47.02-6.09L45.94-6.09Q45.84-7.73 43.78-7.83L43.78-7.83Q41.86-7.78 41.86-6.33L41.86-6.33Q41.86-5.39 42.89-5.25L42.89-5.25L45.33-4.69Q47.25-4.22 47.25-2.34L47.25-2.34Q47.20 0.05 43.88 0.14L43.88 0.14Q42.05 0.14 41.30-0.61L41.30-0.61Q40.36-1.31 40.41-2.77L40.41-2.77L41.53-2.77Q41.58-0.80 43.88-0.75L43.88-0.75Q46.13-0.80 46.17-2.20L46.17-2.20Q46.36-3.38 44.30-3.75L44.30-3.75L42.52-4.13Q40.69-4.64 40.69-6.19L40.69-6.19Q40.83-8.72 43.69-8.81L43.69-8.81Q46.92-8.81 47.02-6.09ZM49.88-5.06L54.38-5.06L54.38-8.58L55.55-8.58L55.55 0L54.38 0L54.38-3.98L49.88-3.98L49.88 0L48.70 0L48.70-8.58L49.88-8.58L49.88-5.06ZM58.64-1.03L63.80-1.03L63.80 0L57.47 0L57.47-8.58L63.70-8.58L63.70-7.59L58.64-7.59L58.64-4.92L63.33-4.92L63.33-3.89L58.64-3.89L58.64-1.03ZM66.70-8.58L71.02-1.64L71.02-8.58L72.14-8.58L72.14 0L70.83 0L66.47-6.94L66.42-6.94L66.42 0L65.30 0L65.30-8.58L66.70-8.58ZM80.86-8.58L77.63-3.47L77.63 0L76.45 0L76.45-3.47L73.22-8.58L74.58-8.58L77.02-4.45L79.50-8.58L80.86-8.58ZM87.56 0L86.72-2.48L83.25-2.48L82.36 0L81.19 0L84.42-8.58L85.73-8.58L88.83 0L87.56 0ZM84.98-7.31L83.63-3.52L86.30-3.52L85.03-7.31L84.98-7.31ZM91.27-8.58L95.58-1.64L95.58-8.58L96.70-8.58L96.70 0L95.39 0L91.03-6.94L90.98-6.94L90.98 0L89.86 0L89.86-8.58L91.27-8.58ZM104.91-3.61L102.28-3.61L102.28-4.59L106.03-4.59L106.03 0L105.28 0L105-1.08Q104.02 0.09 102.19 0.14L102.19 0.14Q100.45 0.14 99.52-0.75L99.52-0.75Q98.11-2.06 98.16-4.36L98.16-4.36Q98.48-8.63 102.23-8.81L102.23-8.81Q105.42-8.63 105.89-6L105.89-6L104.77-6Q104.30-7.78 102.19-7.83L102.19-7.83Q99.52-7.64 99.38-4.31L99.38-4.31Q99.38-0.75 102.23-0.75L102.23-0.75Q103.27-0.75 104.02-1.31L104.02-1.31Q104.95-2.06 104.91-3.61L104.91-3.61ZM118.31-6.05L118.31-6.05L117.19-6.05Q116.77-7.78 114.80-7.83L114.80-7.83Q112.08-7.69 111.98-4.36L111.98-4.36Q111.98-0.80 114.84-0.80L114.84-0.80Q116.81-0.84 117.28-3.19L117.28-3.19L118.41-3.19Q117.89 0.05 114.61 0.14L114.61 0.14Q110.86 0 110.77-4.31L110.77-4.31Q110.95-8.63 114.80-8.81L114.80-8.81Q117.84-8.72 118.31-6.05ZM119.95-8.58L121.13-8.58L121.13 0L119.95 0L119.95-8.58ZM125.30-7.59L122.39-7.59L122.39-8.58L129.33-8.58L129.33-7.59L126.42-7.59L126.42 0L125.30 0L125.30-7.59ZM137.30-8.58L134.06-3.47L134.06 0L132.89 0L132.89-3.47L129.66-8.58L131.02-8.58L133.45-4.45L135.94-8.58L137.30-8.58Z" transform="translate(-0.1875, 8.8125)"></path></g></g></g></g></g><defs v-gra="od"></defs></svg>